<?xml version="1.0" encoding="utf-8"?>
<!-- Generator: Adobe Illustrator 15.0.0, SVG Export Plug-In . SVG Version: 6.00 Build 0)  -->
<!DOCTYPE svg PUBLIC "-//W3C//DTD SVG 1.1//EN" "http://www.w3.org/Graphics/SVG/1.1/DTD/svg11.dtd">
<svg version="1.1" id="Layer_1" xmlns="http://www.w3.org/2000/svg" xmlns:xlink="http://www.w3.org/1999/xlink" x="0px" y="0px"
	 width="168px" height="67px" viewBox="0 0 168 67" enable-background="new 0 0 168 67" xml:space="preserve">
<path d="M59.953,52.006c0.241-0.009,1.581,0.076,1.601-0.763c0-0.061-0.016-0.228-0.167-0.382c-0.155-0.17-0.522-0.461-0.808-0.647
	c-2.628-1.726-4.244-6.623-4.67-14.169c-0.412-7.391,1.271-17.731,1.271-17.731c0.067-0.3,0.863-3.624,0.235-3.994
	c-0.835-0.445-0.883-0.717-2.862-0.888c-0.292-0.02-2.142,0.468-2.247,0.694c-1.78,3.11-3.77,10.356-5.686,17.354
	c-1.173,4.278-2.292,8.321-3.332,11.41c-1.566,4.65-2.308,4.953-2.445,4.97c0,0-0.636-0.009-1.214-3.144
	c-0.36-1.939-0.641-4.748-0.868-8.58c-0.169-3.155-0.282-6.623-0.388-9.973c-0.104-3.201-0.194-6.221-0.347-8.867
	c-0.066-1.217-1.659-1.73-3.191-1.743c-2.609-0.025-2.674,1.417-2.674,1.417c-0.008,0.382-1.626,9.931-5.044,19.662
	c-4.305,12.242-8.669,16.545-13.968,16.879c-9.174,0.573-11.997-8.279-11.79-4.657C1.691,54.711,6.49,59.119,12.275,58.9
	c13.342-0.52,18.01-23.232,19.997-32.923l0.074-0.363c0.055,1.92,0.147,3.855,0.253,5.854c0.817,14.258,3.035,21.116,6.817,20.969
	c1.285-0.054,2.533-1.169,3.512-3.149c2.107-4.212,4.283-12.083,5.714-17.3c0.301-1.09,0.578-2.076,0.814-2.896
	c-0.048,1.705-0.066,3.467,0.04,5.293c0.191,3.438,0.752,6.603,1.742,9.948c1.646,5.563,6.903,7.747,8.718,7.675L59.953,52.006z"/>
<path d="M59.091,26.61c0.97,0.455,0.764,1.791,0.658,3.098c-0.875,10.432,1.257,18.396,5.786,18.396
	c2.343,0,4.393-1.923,5.654-3.509c-0.04,0.331-0.08,0.678-0.132,1.04c-0.656,5.214-1.751,8.864-6.342,11.929
	c-1.461,0.922-3.138,1.389-4.844,1.34c-3.252-0.092-6.239-1.683-7.531-4.466c-0.21-0.693-0.481-0.994-0.778-1.051
	c-1.416-0.276-1.136,1.738-1.136,1.738c1.071,4.457,5.868,6.583,10.144,6.715c2.456,0.064,4.872-0.519,6.631-1.62
	c6.8-4.313,8.852-11.418,9.282-20.168c0.245-4.34,0.513-6.68,0.989-8.874c0.029-0.126,0.227-0.706,1.204-0.428
	c2.419,0.694,5.751,1.518,6.758,1.791c-0.22,5.253-0.548,10.035-0.989,14.267l-0.004,0.042c-0.021,0.752,2.028,4.316,3.794,4.372
	c0.313,0.005,0.592-0.093,0.854-0.294l0.141-0.143l0.012-0.188c0.202-6.84,0.463-12.421,0.8-17.026
	c1.835,0.329,3.794,0.527,5.806,0.59c13.809,0.391,20.189-6.309,20.389-13.131c0.209-7.379-6.855-15.432-20.385-15.82
	C83.129,4.84,73.048,11.6,72.869,17.654c-0.061,2.047,1.083,6.847,12.838,7.667c-0.067,2.283-0.12,3.716-0.186,5.074
	c-0.988-0.192-8.37-1.958-10.424-2.771c-2.614-1.035-2.606,1.105-2.625,1.46c-0.094,3.507-0.41,5.821-1.007,10.309
	c-0.49,3.673-3.719,5.882-4.747,5.921c-1.833,0.089-2.549-4.094-1.496-12.256c0.777-6.055,1.22-8.781-0.944-8.891
	c0,0-3.076,0.02-5.183,2.444H59.091z M94.032,31.378c-0.885-0.03-2.248-0.104-3.842-0.296c0.116-1.605,0.257-3.06,0.366-4.355
	c0.04-0.513,0.095-1.011,0.139-1.497c0.995-0.1,2.343-0.428,3.319-0.771c0.975-0.345,1.518-0.462,2.051-0.749
	c0.547-0.289,0.667-1.013-0.015-0.903c-0.688,0.107-2.452,0.554-2.452,0.554s-1.156,0.261-2.744,0.364
	c0.422-3.886,0.833-6.346,1.074-7.843c0.157-0.962,0.256-1.544,0.271-1.937c0.004-0.441-0.513-0.662-0.896-0.672
	c-0.159,0.004-3.841,0.076-4.404,0.112c-0.517,0.066-0.849,0.415-0.875,0.95c-0.063,0.326-0.087,0.937-0.116,2.027
	c-0.02,0.727-0.032,1.625-0.061,2.659c-0.021,1.312-0.048,2.78-0.101,4.408c-5.086-0.762-8.165-2.949-8.087-5.779
	c0.12-4.118,6.832-8.192,17.848-7.877c8.89,0.255,13.509,6.242,13.344,11.74c-0.138,4.74-4.097,10.169-14.822,9.866L94.032,31.378z"
	/>
<path d="M165.44,39.06c-0.386-0.021-0.71,0.205-0.799,0.277l-0.08,0.051l-0.039,0.075c-2.47,4.213-7.024,11.359-16.381,11.232
	c-2.498-0.03-4.041-1.938-4.711-5.531c5.616-8.659,8.51-21.263,8.791-26.115c0.372-6.186-1.665-7.598-3.452-7.694
	c-4.625-0.247-8.403,15.132-9.083,26.27c-0.173,2.75-0.251,5.933,0.418,8.803c-2.068,2.508-5.188,4.295-7.326,4.182
	c-2.677-0.146-3.525-2.227-3.667-4.735c5.806-2.99,8.257-6.455,8.463-9.758c0.172-2.761-1.37-4.711-3.83-4.843
	c-4.978-0.261-9.176,4.241-8.894,13.703c0,0-3.553,2.93-5.519,2.827c-0.214-0.011-1.37-0.357-2.374-5.926
	c3.661-4.243,6.929-7.375,8.163-8.557c0.741-0.703,6.813-6.522,6.826-6.708c0-0.04,0.037-0.165,0.062-0.261
	c0.058-0.219,0.145-0.489,0.16-0.75c0.055-0.943-0.698-1.054-0.928-1.07c-0.404-0.026-6.779,6.013-6.833,6.052l-0.02,0.015
	l-0.016,0.02c-3.389,3.298-6.04,6.052-7.901,8.018c-0.26-1.946-0.279-2.419-0.42-4.204c-0.067-1.041-0.924-1.758-2.188-1.826
	c-1.324-0.071-2.829,0.574-4.052,1.711l-0.33,0.306l0.317,0.315c0.561,0.559,1.847,6.935,2.227,8.506
	c-4.772,4.73-6.73,4.623-7.564,4.582h-0.044c-0.416-0.032-0.784-0.249-0.697-1.715c0.243-3.866,0.455-4.12,0.961-6.258
	c0.211-0.868,0.481-1.791,0.758-2.814l0.015-0.039v-0.046c0.015-0.328-0.264-0.846-1.094-0.886l-0.056-0.006l-0.06,0.013
	c-1.338,0.184-2.17,0.194-3.086,0.146c-0.595-0.033-1.01,0.44-1.176,0.862l-0.004,0.033c-0.386,1.756-0.696,2.221-0.924,5.874
	c-0.38,6.37,1.886,7.833,3.854,7.941c2.429,0.129,5.061-0.704,9.846-5.09c1.267,3.722,3.049,6.06,5.347,5.724
	c1.882-0.277,6.07-2.574,7.646-3.974c1.482,4.023,3.965,4.921,6.054,5.033c3.041,0.16,6.433-1.44,9.032-4.216
	c1.619,3.757,4.819,5.792,9.532,6.042c8.508,0.46,15.31-5.227,16.014-12.906c0.209-2.341-0.704-2.673-0.938-2.683V39.06z
	 M143.13,38.41c0.576-9.407,4.083-20.112,5.198-21.509c0.197,0.225,0.515,1.044,0.374,3.392c-0.248,3.957-1.937,13.949-5.629,21.402
	c-0.025-1-0.009-2.088,0.06-3.285H143.13z M133.364,34.869c0.396,0.02,0.644,0.658,0.596,1.521
	c-0.111,1.752-1.538,5.362-4.726,6.535C129.747,38.939,131.683,34.778,133.364,34.869z"/>
</svg>
